Coordinates
version=1
nRows=29
nColumns=24
inDegrees=yes

Units are S.I. units (second, meters, Newtons, ...)
Angles are in degrees.

endheader
time	pelvis_tilt	pelvis_list	pelvis_rotation	pelvis_tx	pelvis_ty	pelvis_tz	hip_flexion_r	hip_adduction_r	hip_rotation_r	knee_angle_r	ankle_angle_r	subtalar_angle_r	mtp_angle_r	hip_flexion_l	hip_adduction_l	hip_rotation_l	knee_angle_l	ankle_angle_l	subtalar_angle_l	mtp_angle_l	lumbar_extension	lumbar_bending	lumbar_rotation
      0.57900000	      2.06708335	      7.90697624	     -5.35363805	     -0.78519670	      0.97991868	      0.31128766	     22.58408137	     -6.40745749	      0.96242386	      0.17396034	      2.73867513	      1.09962079	      0.96502778	    -20.81266999	     14.07498706	      8.57906946	     -2.00010650	     10.37726204	    -16.63230870	     -0.24973571	    -13.43476118	     -0.97651227	     -8.85989171
      0.58316667	      1.93810335	      7.78409235	     -5.34198117	     -0.77955242	      0.97909988	      0.31170665	     22.70794439	     -6.20261490	      1.27771841	     -0.08339538	      2.52073344	      0.84273150	      1.35529374	    -20.73878124	     13.94871732	      8.36022075	     -2.61899041	     10.71084572	    -16.21611362	     -0.43861385	    -13.26705148	     -0.78380325	     -8.91736315
      0.58733333	      1.87253511	      7.63076168	     -5.33091776	     -0.77386242	      0.97841619	      0.31210339	     22.77768409	     -5.98264347	      1.50673112	     -0.44758808	      2.31535985	      0.71088790	      5.53278326	    -20.72687452	     13.79755612	      8.15233745	     -3.25768044	     11.07628570	    -15.79981583	     -2.02786987	    -13.19762389	     -0.57258851	     -8.84986948
      0.59150000	      1.83231118	      7.42736029	     -5.34731864	     -0.76811319	      0.97781186	      0.31258622	     22.78239855	     -5.70090293	      1.87277622	     -0.81119039	      1.99438499	      0.33813427	      5.55185880	    -20.76383448	     13.60153731	      7.95282627	     -3.84659492	     11.27487560	    -15.51708279	     -1.98991743	    -13.15934702	     -0.31091283	     -8.79635413
      0.59566667	      1.75446968	      7.24893343	     -5.34429224	     -0.76237509	      0.97718596	      0.31304580	     22.87361944	     -5.44672808	      2.19178317	     -1.32168320	      1.70423015	      0.01302766	      5.58003002	    -20.69742804	     13.42557340	      7.67674759	     -4.56708997	     11.55895839	    -15.10535220	     -1.91807726	    -13.06406859	     -0.06962920	     -8.73906140
      0.59983333	      1.69540378	      7.04550738	     -5.34021286	     -0.75660202	      0.97663547	      0.31352527	     22.93748710	     -5.16952851	      2.51443465	     -1.87453877	      1.38600403	     -0.34342990	      5.61736905	    -20.63405017	     13.22357666	      7.38472889	     -5.32542707	     11.81532653	    -14.68913585	     -1.80091714	    -13.00988748	      0.19385877	     -8.68277663
      0.60400000	      1.60827757	      6.83125910	     -5.35010154	     -0.75077018	      0.97607187	      0.31403489	     23.05538636	     -4.87028290	      2.83441151	     -2.52344492	      1.02522756	     -0.73843928	      5.64556117	    -20.55159596	     13.01414636	      7.12957353	     -6.06064435	     12.00234656	    -14.35340987	     -1.68187161	    -12.90620924	      0.47319446	     -8.61166621
      0.60816667	      1.55641482	      6.61236634	     -5.34409033	     -0.74493800	      0.97560346	      0.31455448	     23.12988818	     -4.57569332	      3.13841427	     -3.19885604	      0.65411139	     -1.17344600	      5.68612570	    -20.45632894	     12.79349556	      6.79822568	     -6.90046494	     12.21412680	    -13.92510054	     -1.48256911	    -12.85517175	      0.75496018	     -8.54565571
      0.61233333	      1.46724821	      6.39318277	     -5.35461146	     -0.73904119	      0.97510907	      0.31508204	     23.27205827	     -4.26934735	      3.43537968	     -3.96134619	      0.26717903	     -1.60651490	      5.71268063	    -20.33446752	     12.58005178	      6.53623863	     -7.70390553	     12.32086357	    -13.63755185	     -1.30650204	    -12.72745233	      1.05225829	     -8.47083875
      0.61650000	      1.38941615	      6.15871243	     -5.35993760	     -0.73312756	      0.97466447	      0.31563801	     23.40218850	     -3.94777181	      3.71392647	     -4.75515836	     -0.13035511	     -2.08300267	      5.73613662	    -20.19432434	     12.34725445	      6.23636778	     -8.57924717	     12.42583587	    -13.30230500	     -1.09495212	    -12.63562090	      1.35420618	     -8.39693010
      0.62066667	      1.31285723	      5.92506040	     -5.36113321	     -0.72718505	      0.97426309	      0.31620044	     23.53740536	     -3.62839976	      3.97260961	     -5.58514687	     -0.51279301	     -2.56177575	      5.75668872	    -20.03244886	     12.11189511	      5.91720054	     -9.49387139	     12.48784927	    -12.97430213	     -0.83737367	    -12.53969367	      1.65629037	     -8.31701106
      0.62483333	      1.29364549	      5.64899287	     -5.35198527	     -0.72121536	      0.97397085	      0.31678022	     23.59142643	     -3.27610749	      4.19522629	     -6.40836415	     -0.87013762	     -3.05699332	      5.79173787	    -19.90106601	     11.82573071	      5.53506693	    -10.48873255	     12.58728104	    -12.52798668	     -0.28025815	    -12.53523696	      1.99935856	     -8.24385954
      0.62900000	      1.22772394	      5.39154118	     -5.35581738	     -0.71519371	      0.97365127	      0.31737564	     23.72041844	     -2.93010572	      4.41325956	     -7.29456599	     -1.22078843	     -3.56943473	      5.81555616	    -19.72530519	     11.56322082	      5.20901252	    -11.44894718	     12.56282181	    -12.22460327	      0.47645327	    -12.44256351	      2.33697899	     -8.16247713
      0.63316667	      1.12954982	      5.18915430	     -5.35720123	     -0.70918375	      0.97330833	      0.31793378	     23.92510398	     -2.64102976	      4.58675961	     -8.25880695	     -1.50138599	     -3.96505340	      5.81190545	    -19.50598538	     11.36948363	      5.01944987	    -12.41313276	     12.32053683	    -12.21695978	      0.73671902	    -12.30492919	      2.60078729	     -8.08708669
      0.63733333	      1.09916384	      4.91914292	     -5.35640533	     -0.70313001	      0.97309440	      0.31855151	     24.01795217	     -2.28812812	      4.75123432	     -9.18068370	     -1.72178102	     -4.41845867	      5.71449463	    -19.31716802	     11.08656336	      4.64507178	    -13.46253663	     12.10755041	    -11.96693454	      5.37645857	    -12.27300614	      2.93901712	     -7.98637556
      0.64150000	      1.02992590	      4.68106123	     -5.33740801	     -0.69705880	      0.97288754	      0.31912225	     24.16157923	     -1.97321070	      4.87853527	    -10.12515074	     -1.93275009	     -4.84820260	      5.69791922	    -19.07567175	     10.84122223	      4.40299835	    -14.52601354	     11.82481140	    -11.88159053	      5.43505843	    -12.16961367	      3.24952005	     -7.94278869
      0.64566667	      0.98214294	      4.43273955	     -5.31623237	     -0.69098080	      0.97273898	      0.31970899	     24.27582520	     -1.65000964	      4.99198587	    -11.07102059	     -2.06314000	     -5.27260303	      5.66829662	    -18.82018994	     10.57679966	      4.10391703	    -15.65870038	     11.54993772	    -11.68929566	      5.58267360	    -12.09534241	      3.56933654	     -7.87431208
      0.64983333	      0.94787889	      4.17708898	     -5.29100722	     -0.68489647	      0.97265454	      0.32030510	     24.36551283	     -1.32235944	      5.08734506	    -12.00814274	     -2.12870682	     -5.67021715	      5.62524247	    -18.55292877	     10.29893276	      3.79054160	    -16.82853868	     11.20351864	    -11.51808747	      5.80617811	    -12.04435364	      3.89375619	     -7.80980837
      0.65400000	      0.91412537	      3.91846107	     -5.25874797	     -0.67880352	      0.97261279	      0.32089540	     24.44513869	     -0.99478232	      5.16548071	    -12.93713848	     -2.11734804	     -6.03545324	      5.56946647	    -18.26053664	     10.01268361	      3.48453201	    -18.03845862	     10.78564395	    -11.36914045	      6.09891157	    -11.99142921	      4.21616183	     -7.75375767
      0.65816667	      0.89733640	      3.66207199	     -5.21958957	     -0.67270658	      0.97264007	      0.32147559	     24.49530706	     -0.67501445	      5.22659601	    -13.85134209	     -2.03402079	     -6.38841809	      5.49136387	    -17.95323928	      9.71939992	      3.15596962	    -19.29411337	     10.29285329	    -11.19745494	      6.50670256	    -11.94137054	      4.55774084	     -7.69883676
      0.66233333	      0.92927678	      3.36579752	     -5.16325071	     -0.66659424	      0.97280102	      0.32207421	     24.45594282	     -0.32168112	      5.27872966	    -14.71534498	     -1.89136647	     -6.80377592	      4.35245074	    -17.68540117	      9.37098295	      2.83065605	    -20.55086679	      9.60348398	    -11.10171165	     12.20244384	    -11.97950633	      4.92190389	     -7.61999285
      0.66650000	      0.92422916	      3.09944075	     -5.10393397	     -0.66049797	      0.97293891	      0.32262664	     24.47014492	     -0.00545020	      5.27595523	    -15.60197288	     -1.62772414	     -6.99775526	      4.33728779	    -17.33710248	      9.05394299	      2.53120093	    -21.87630271	      8.92211507	    -11.01484916	     12.25584216	    -11.95843822	      5.25664069	     -7.59037257
      0.67066667	      0.92596493	      2.83055025	     -5.03271708	     -0.65442932	      0.97312872	      0.32318818	     24.45600092	      0.31222069	      5.28024248	    -16.45046508	     -1.33617928	     -7.25816300	      4.30348122	    -16.95403586	      8.71514765	      2.19868647	    -23.26360783	      8.21822756	    -10.84387718	     12.38641312	    -11.94054846	      5.59674397	     -7.55280823
      0.67483333	      0.92748846	      2.55419935	     -4.94060278	     -0.64838007	      0.97335957	      0.32374448	     24.43065590	      0.63121200	      5.25078076	    -17.28344303	     -1.02439397	     -7.55325373	      4.21593994	    -16.52853605	      8.34386403	      1.84101945	    -24.70986772	      7.49284388	    -10.54969366	     12.72788950	    -11.92723656	      5.94998843	     -7.51858263
      0.67900000	      0.96976162	      2.24785546	     -4.85134813	     -0.64232678	      0.97372099	      0.32432297	     24.30054300	      0.98208849	      5.26717427	    -18.00085127	     -0.64733428	     -7.85082725	      2.93541823	    -16.13478471	      7.93509843	      1.48058795	    -26.14556652	      6.51018395	    -10.44849062	     17.50575203	    -11.96545019	      6.32440427	     -7.45301484
      0.68316667	      1.02877484	      1.96946713	     -4.76094453	     -0.63630247	      0.97412798	      0.32484976	     24.16613399	      1.29300432	      5.23482513	    -18.74296639	     -0.17664034	     -8.03935452	      2.93224895	    -15.74114188	      7.56262162	      1.18483998	    -27.58912367	      5.49405208	    -10.34260758	     17.52129750	    -12.02565106	      6.67822928	     -7.40650732
      0.68733333	      1.02183704	      1.68880154	     -4.64040093	     -0.63034215	      0.97445948	      0.32541442	     24.07954577	      1.60908364	      5.19143687	    -19.43238102	      0.28765467	     -8.24244140	      2.86133983	    -15.19957751	      7.13225651	      0.79472266	    -29.16879620	      4.54150230	    -10.00245993	     17.74719196	    -11.99921486	      7.00702897	     -7.39540735
      0.69150000	      1.06811226	      1.39318685	     -4.54835357	     -0.62439058	      0.97491002	      0.32598020	     23.90508302	      1.94217507	      5.17008461	    -20.05618294	      0.76218020	     -8.40996710	      2.81669873	    -14.71850104	      6.70083776	      0.42341239	    -30.70762964	      3.41468804	     -9.85939912	     17.89415813	    -12.04726037	      7.35614643	     -7.34542337
      0.69566667	      1.06423829	      1.10309875	     -4.39857203	     -0.61848981	      0.97532765	      0.32651905	     23.76275215	      2.25781136	      5.10963549	    -20.63957384	      1.26619730	     -8.66492645	      2.58686237	    -14.13111700	      6.22811486	      0.07874130	    -32.32227477	      2.34495691	     -9.44945328	     18.59454174	    -12.02487549	      7.71088786	     -7.32518644
